Coordinates
version=1
nRows=65
nColumns=12
inDegrees=yes

Units are S.I. units (second, meters, Newtons, ...)
Angles are in degrees

endheader
time	SC_y	SC_z	SC_x	AC_y	AC_z	AC_x	GH_y	GH_z	GH_yy	EL_x	PS_y
       0.0              -24.59          31.68          40.96          54.16         -7.209          7.809          169.9          5.731         -101.6          102.9          119.8
   0.02362              -24.59          31.68          40.96          54.15         -7.209           7.81          169.9          5.742         -101.6          102.9          119.8
   0.04724               -24.6          31.68          40.96          54.15          -7.21          7.811          169.9          5.754         -101.6          102.9          119.8
   0.07085               -24.6          31.68          40.95          54.15          -7.21          7.813          169.9          5.767         -101.6          102.9          119.8
   0.09447               -24.6          31.67          40.95          54.14          -7.21          7.814          169.9          5.781         -101.5          102.9          119.8
    0.1181               -24.6          31.67          40.95          54.14         -7.211          7.815          169.9          5.795         -101.5          102.9          119.8
    0.1417              -24.61          31.67          40.94          54.13         -7.211          7.817          169.9          5.811         -101.5          102.9          119.8
    0.1653              -24.61          31.66          40.94          54.13         -7.212          7.819          169.9          5.827         -101.5          102.9          119.8
    0.1889              -24.61          31.66          40.93          54.12         -7.213          7.821          169.9          5.845         -101.5          102.9          119.8
    0.2126              -24.62          31.66          40.93          54.12         -7.213          7.823          169.9          5.864         -101.5          102.9          119.7
    0.2362              -24.62          31.65          40.92          54.11         -7.214          7.825          169.9          5.884         -101.5          102.9          119.7
    0.2598              -24.63          31.65          40.92           54.1         -7.215          7.827          169.9          5.906         -101.4          102.9          119.7
    0.2834              -24.63          31.65          40.91           54.1         -7.215           7.83          169.9           5.93         -101.4          102.9          119.7
     0.307              -24.64          31.64           40.9          54.09         -7.216          7.832          169.9          5.956         -101.4          102.9          119.7
    0.3306              -24.64          31.64           40.9          54.08         -7.217          7.835          169.9          5.983         -101.4          102.9          119.7
    0.3543              -24.65          31.63          40.89          54.07         -7.218          7.838          169.9          6.013         -101.4          102.9          119.7
    0.3779              -24.66          31.63          40.88          54.06         -7.219          7.842          169.9          6.046         -101.3          102.9          119.6
    0.4015              -24.66          31.62          40.87          54.05          -7.22          7.845          169.9          6.082         -101.3          102.9          119.6
    0.4251              -24.67          31.61          40.86          54.04         -7.222          7.849          169.8           6.12         -101.3          102.9          119.6
    0.4487              -24.68          31.61          40.85          54.03         -7.223          7.854          169.8          6.163         -101.2          102.8          119.6
    0.4724              -24.69           31.6          40.84          54.01         -7.225          7.859          169.8           6.21         -101.2          102.8          119.6
     0.496               -24.7          31.59          40.83           54.0         -7.226          7.864          169.8          6.261         -101.1          102.8          119.5
    0.5196              -24.71          31.58          40.81          53.98         -7.228           7.87          169.8          6.318         -101.1          102.8          119.5
    0.5432              -24.72          31.57           40.8          53.96          -7.23          7.877          169.8          6.381         -101.0          102.8          119.5
    0.5668              -24.74          31.55          40.78          53.94         -7.232          7.884          169.8          6.451         -101.0          102.8          119.4
    0.5904              -24.75          31.54          40.76          53.92         -7.235          7.892          169.8          6.529         -100.9          102.8          119.4
    0.6141              -24.77          31.52          40.73          53.89         -7.238          7.901          169.8          6.616         -100.8          102.8          119.3
    0.6377              -24.79          31.51          40.71          53.86         -7.241          7.912          169.7          6.714         -100.8          102.8          119.3
    0.6613              -24.81          31.49          40.68          53.83         -7.245          7.923          169.7          6.825         -100.7          102.7          119.2
    0.6849              -24.84          31.47          40.65          53.79         -7.249          7.936          169.7          6.952         -100.6          102.7          119.1
    0.7085              -24.87          31.44          40.61          53.74         -7.254          7.951          169.7          7.096         -100.4          102.7          119.0
    0.7321               -24.9          31.41          40.57          53.69         -7.259          7.969          169.7          7.261         -100.3          102.7          119.0
    0.7558              -24.94          31.38          40.52          53.64         -7.265          7.989          169.6          7.452         -100.1          102.6          118.8
    0.7794              -24.98          31.34          40.46          53.57         -7.273          8.012          169.6          7.673         -99.95          102.6          118.7
     0.803              -25.03          31.29           40.4          53.49         -7.281          8.039          169.5          7.933         -99.73          102.5          118.6
    0.8266               -25.1          31.24          40.32           53.4         -7.291          8.071          169.5          8.238         -99.47          102.5          118.4
    0.8502              -25.17          31.17          40.22          53.29         -7.303          8.109          169.4          8.602         -99.16          102.4          118.2
    0.8739              -25.26           31.1          40.11          53.16         -7.317          8.154          169.3          9.037          -98.8          102.4          117.9
    0.8975              -25.36           31.0          39.98           53.0         -7.335          8.209          169.3          9.564         -98.35          102.3          117.6
    0.9211              -25.49          30.89          39.81           52.8         -7.356          8.277          169.1          10.21         -97.81          102.1          117.3
    0.9447              -25.65          30.75           39.6          52.56         -7.382           8.36          169.0           11.0         -97.13          102.0          116.8
    0.9683              -25.85          30.57          39.35          52.26         -7.414          8.463          168.8          11.99          -96.3          101.8          116.3
    0.9919               -26.1          30.35          39.03          51.88         -7.455          8.593          168.6          13.24         -95.24          101.6          115.6
     1.016              -26.42          30.07          38.62           51.4         -7.507          8.759          168.3          14.83          -93.9          101.3          114.7
     1.039              -26.83          29.71           38.1          50.79         -7.574          8.971          168.0          16.86         -92.18          101.0          113.5
     1.063              -27.35          29.25          37.43           50.0          -7.66          9.244          167.5          19.46         -89.98          100.5          112.0
     1.086              -28.02          28.67          36.57          48.99         -7.769          9.592          167.0          22.79         -87.17          99.96          110.1
      1.11              -28.86          27.93          35.49          47.72         -7.906          10.03          166.2          26.98         -83.63          99.24          107.7
     1.134              -29.88          27.02          34.18          46.17         -8.073          10.56          165.4          32.08         -79.32          98.35          104.8
     1.157              -31.07          25.98          32.65          44.38         -8.267          11.18          164.3          37.99         -74.32          97.33          101.5
     1.181              -32.36          24.85           31.0          42.44         -8.478          11.85          163.2          44.39         -68.91          96.22          97.85
     1.204              -33.64          23.72          29.36           40.5         -8.688          12.52          162.1          50.79          -63.5          95.11          94.21
     1.228              -34.83          22.67          27.83          38.71         -8.882          13.13          161.1           56.7          -58.5          94.08          90.85
     1.252              -35.85          21.77          26.52          37.16         -9.049          13.67          160.2           61.8         -54.19           93.2          87.95
     1.275              -36.69          21.03          25.44           35.9         -9.186          14.11          159.5          65.98         -50.65          92.47          85.57
     1.299              -37.36          20.44          24.58          34.89         -9.296          14.45          158.9          69.31         -47.83          91.89          83.68
     1.323              -37.89          19.98          23.91           34.1         -9.381          14.73          158.4          71.92         -45.63          91.44           82.2
     1.346              -38.29          19.62          23.39          33.48         -9.448          14.94          158.1          73.95         -43.91          91.09          81.04
      1.37              -38.61          19.34          22.98           33.0           -9.5           15.1          157.8          75.53         -42.57          90.81          80.14
     1.393              -38.86          19.12          22.66          32.62         -9.541          15.23          157.6          76.78         -41.52           90.6          79.43
     1.417              -39.06          18.95           22.4          32.32         -9.573          15.34          157.4          77.77         -40.68          90.43          78.87
     1.441              -39.22          18.81           22.2          32.08         -9.599          15.42          157.3          78.57         -40.01          90.29          78.41
     1.464              -39.35          18.69          22.03          31.89          -9.62          15.49          157.2          79.21         -39.46          90.18          78.05
     1.488              -39.46           18.6           21.9          31.73         -9.638          15.54          157.1          79.74         -39.02          90.08          77.75
     1.512              -39.54          18.52          21.79           31.6         -9.652          15.59          157.0          80.17         -38.65          90.01           77.5
